<?xml version="1.0" encoding="utf-8"?>
<!-- Generator: Adobe Illustrator 21.1.0, SVG Export Plug-In . SVG Version: 6.00 Build 0)  -->
<svg version="1.1" id="Livello_1" xmlns="http://www.w3.org/2000/svg" xmlns:xlink="http://www.w3.org/1999/xlink" x="0px" y="0px"
	 viewBox="0 0 24 24" style="enable-background:new 0 0 24 24;" xml:space="preserve">
<style type="text/css">
	.st0{fill:#317A90;}
	.st1{fill:none;}
</style>
<path class="st0" d="M19,7.8H5c-1.7,0-3,1.3-3,3v6h4v4h12v-4h4v-6C22,9.2,20.7,7.8,19,7.8z M16,18.8H8v-5h8V18.8z M19,11.8
	c-0.5,0-1-0.4-1-1s0.5-1,1-1s1,0.4,1,1S19.5,11.8,19,11.8z M18,2.8H6v4h12V2.8z"/>
<path class="st1" d="M0,0h24v24H0V0z"/>
</svg>
